<?xml version="1.0" encoding="utf-8"?><svg xmlns:xlink="http://www.w3.org/1999/xlink" id="biblioteca" image-rendering="auto" baseProfile="basic" version="1.1" x="0px" y="0px" width="550" height="400" xmlns="http://www.w3.org/2000/svg"><defs><filter id="filter" filterUnits="objectBoundingBox" width="100%" height="100%" x="0%" y="0%"><feComponentTransfer in="SourceGraphic" result="colorTrans"><feFuncR type="linear" slope="1" intercept="0"><animate attributeName="slope" repeatCount="indefinite" dur="25.958s" keyTimes="0;0.074;0.075;0.6;0.601;0.758;0.759;0.899;0.9;0.933;0.934;1" values="1;1;0.6;0.6;1;1;0.6;0.6;1;1;0.6;0.6" calcMode="discrete"/></feFuncR><feFuncG type="linear" slope="1" intercept="0"><animate attributeName="slope" repeatCount="indefinite" dur="25.958s" keyTimes="0;0.074;0.075;0.6;0.601;0.758;0.759;0.899;0.9;0.933;0.934;1" values="1;1;0.6;0.6;1;1;0.6;0.6;1;1;0.6;0.6" calcMode="discrete"/></feFuncG><feFuncB type="linear" slope="1" intercept="0"><animate attributeName="slope" repeatCount="indefinite" dur="25.958s" keyTimes="0;0.074;0.075;0.6;0.601;0.758;0.759;0.899;0.9;0.933;0.934;1" values="1;1;0.6;0.6;1;1;0.6;0.6;1;1;0.6;0.6" calcMode="discrete"/></feFuncB></feComponentTransfer></filter><filter id="filter1" filterUnits="objectBoundingBox" width="100%" height="100%" x="0%" y="0%"><feComponentTransfer in="SourceGraphic" result="colorTrans"><feFuncR type="linear" slope="1" intercept="0"><animate attributeName="slope" repeatCount="indefinite" dur="25.958s" keyTimes="0;0.074;0.075;0.209;0.21;0.438;0.439;0.507;0.508;0.538;0.539;0.83;0.831;0.864;0.865;1" values="1;1;0.6;0.6;1;1;0.6;0.6;1;1;0.6;0.6;1;1;0.6;0.6" calcMode="discrete"/></feFuncR><feFuncG type="linear" slope="1" intercept="0"><animate attributeName="slope" repeatCount="indefinite" dur="25.958s" keyTimes="0;0.074;0.075;0.209;0.21;0.438;0.439;0.507;0.508;0.538;0.539;0.83;0.831;0.864;0.865;1" values="1;1;0.6;0.6;1;1;0.6;0.6;1;1;0.6;0.6;1;1;0.6;0.6" calcMode="discrete"/></feFuncG><feFuncB type="linear" slope="1" intercept="0"><animate attributeName="slope" repeatCount="indefinite" dur="25.958s" keyTimes="0;0.074;0.075;0.209;0.21;0.438;0.439;0.507;0.508;0.538;0.539;0.83;0.831;0.864;0.865;1" values="1;1;0.6;0.6;1;1;0.6;0.6;1;1;0.6;0.6;1;1;0.6;0.6" calcMode="discrete"/></feFuncB></feComponentTransfer></filter><filter id="filter2" filterUnits="objectBoundingBox" width="100%" height="100%" x="0%" y="0%"><feComponentTransfer in="SourceGraphic" result="colorTrans"><feFuncR type="linear" slope="1" intercept="0"><animate attributeName="slope" repeatCount="indefinite" dur="25.958s" keyTimes="0;0.074;0.075;0.138;0.139;0.173;0.174;0.538;0.539;0.568;0.569;0.864;0.865;0.899;0.9;1" values="1;1;0.6;0.6;1;1;0.6;0.6;1;1;0.6;0.6;1;1;0.6;0.6" calcMode="discrete"/></feFuncR><feFuncG type="linear" slope="1" intercept="0"><animate attributeName="slope" repeatCount="indefinite" dur="25.958s" keyTimes="0;0.074;0.075;0.138;0.139;0.173;0.174;0.538;0.539;0.568;0.569;0.864;0.865;0.899;0.9;1" values="1;1;0.6;0.6;1;1;0.6;0.6;1;1;0.6;0.6;1;1;0.6;0.6" calcMode="discrete"/></feFuncG><feFuncB type="linear" slope="1" intercept="0"><animate attributeName="slope" repeatCount="indefinite" dur="25.958s" keyTimes="0;0.074;0.075;0.138;0.139;0.173;0.174;0.538;0.539;0.568;0.569;0.864;0.865;0.899;0.9;1" values="1;1;0.6;0.6;1;1;0.6;0.6;1;1;0.6;0.6;1;1;0.6;0.6" calcMode="discrete"/></feFuncB></feComponentTransfer></filter><filter id="filter3" filterUnits="objectBoundingBox" width="100%" height="100%" x="0%" y="0%"><feComponentTransfer in="SourceGraphic" result="colorTrans"><feFuncR type="linear" slope="1" intercept="0"><animate attributeName="slope" repeatCount="indefinite" dur="25.958s" keyTimes="0;0.074;0.075;0.104;0.105;0.138;0.139;0.477;0.478;0.507;0.508;0.795;0.796;0.83;0.831;1" values="1;1;0.6;0.6;1;1;0.6;0.6;1;1;0.6;0.6;1;1;0.6;0.6" calcMode="discrete"/></feFuncR><feFuncG type="linear" slope="1" intercept="0"><animate attributeName="slope" repeatCount="indefinite" dur="25.958s" keyTimes="0;0.074;0.075;0.104;0.105;0.138;0.139;0.477;0.478;0.507;0.508;0.795;0.796;0.83;0.831;1" values="1;1;0.6;0.6;1;1;0.6;0.6;1;1;0.6;0.6;1;1;0.6;0.6" calcMode="discrete"/></feFuncG><feFuncB type="linear" slope="1" intercept="0"><animate attributeName="slope" repeatCount="indefinite" dur="25.958s" keyTimes="0;0.074;0.075;0.104;0.105;0.138;0.139;0.477;0.478;0.507;0.508;0.795;0.796;0.83;0.831;1" values="1;1;0.6;0.6;1;1;0.6;0.6;1;1;0.6;0.6;1;1;0.6;0.6" calcMode="discrete"/></feFuncB></feComponentTransfer></filter><filter id="filter4" filterUnits="objectBoundingBox" width="100%" height="100%" x="0%" y="0%"><feComponentTransfer in="SourceGraphic" result="colorTrans"><feFuncR type="linear" slope="1" intercept="0"><animate attributeName="slope" repeatCount="indefinite" dur="25.958s" keyTimes="0;0.074;0.075;0.173;0.174;0.209;0.21;0.568;0.569;0.6;0.601;0.933;0.934;0.966;0.967;1" values="1;1;0.6;0.6;1;1;0.6;0.6;1;1;0.6;0.6;1;1;0.6;0.6" calcMode="discrete"/></feFuncR><feFuncG type="linear" slope="1" intercept="0"><animate attributeName="slope" repeatCount="indefinite" dur="25.958s" keyTimes="0;0.074;0.075;0.173;0.174;0.209;0.21;0.568;0.569;0.6;0.601;0.933;0.934;0.966;0.967;1" values="1;1;0.6;0.6;1;1;0.6;0.6;1;1;0.6;0.6;1;1;0.6;0.6" calcMode="discrete"/></feFuncG><feFuncB type="linear" slope="1" intercept="0"><animate attributeName="slope" repeatCount="indefinite" dur="25.958s" keyTimes="0;0.074;0.075;0.173;0.174;0.209;0.21;0.568;0.569;0.6;0.601;0.933;0.934;0.966;0.967;1" values="1;1;0.6;0.6;1;1;0.6;0.6;1;1;0.6;0.6;1;1;0.6;0.6" calcMode="discrete"/></feFuncB></feComponentTransfer></filter></defs><g id="Scene_1" overflow="visible"><g><path fill="none" stroke="#44819B" stroke-width="8" stroke-linecap="round" stroke-linejoin="round" d="M412.851,356.601L412.851,82.051"/><path fill="none" stroke="#44819B" stroke-width="8" stroke-linecap="round" stroke-linejoin="round" d="M138.051,82.051L138.051,356.401"/><path fill="none" stroke="#44819B" stroke-width="8" stroke-linecap="round" stroke-linejoin="round" d="M138.301,189.301L412.101,189.301"/><path fill="none" stroke="#44819B" stroke-width="8" stroke-linecap="round" stroke-linejoin="round" d="M138.301,329.301L412.101,329.301"/><path fill="#44819B" d="M145.301,67.251Q145.301,64.301 143.201,62.151 141.051,60.051 138.051,60.051 135.101,60.051 132.951,62.151 130.851,64.301 130.851,67.251 130.851,70.251 132.951,72.401 135.101,74.501 138.051,74.501 141.051,74.501 143.201,72.401 145.301,70.251 145.301,67.251"/><path fill="#44819B" d="M420.301,67.251Q420.301,64.301 418.201,62.151 416.051,60.051 413.051,60.051 410.101,60.051 407.951,62.151 405.851,64.301 405.851,67.251 405.851,70.251 407.951,72.401 410.101,74.501 413.051,74.501 416.051,74.501 418.201,72.401 420.301,70.251 420.301,67.251"/><path fill="#44819B" d="M370.401,134.751L348.751,134.751 341.651,170.801Q341.651,178.201 346.901,183.451 352.151,188.701 359.551,188.701 367.001,188.701 372.251,183.451 377.501,178.201 377.501,170.801L370.401,134.751"/><path fill="none" stroke="#44819B" stroke-width="2.1" stroke-linecap="round" stroke-linejoin="round" d="M359.551,112.351L359.551,145.301"/><path fill="#44819B" d="M373.251,101.451Q374.751,99.751 374.201,98.451 373.651,97.151 371.351,97.051 369.051,97.001 366.351,98.151L365.801,98.401 366.101,97.751Q367.151,95.001 367.001,92.751 366.851,90.501 365.551,89.951 364.251,89.451 362.551,91.001 360.851,92.551 359.801,95.251L359.501,96.151 359.101,95.251Q357.951,92.601 356.201,91.101 354.501,89.601 353.201,90.151 351.901,90.701 351.851,93.001 351.751,95.301 352.901,97.951L353.201,98.601 352.601,98.351Q349.901,97.251 347.601,97.451 345.351,97.601 344.801,98.901 344.301,100.201 345.851,101.901 347.401,103.551 350.151,104.651L350.901,104.901 350.251,105.201Q347.551,106.351 346.051,108.101 344.601,109.801 345.151,111.101 345.701,112.401 348.001,112.451 350.301,112.551 352.951,111.401L353.601,111.101 353.351,111.651Q352.301,114.351 352.451,116.651 352.651,118.951 353.951,119.451 355.251,119.951 356.951,118.401 358.601,116.851 359.651,114.101L359.801,113.751 359.951,114.101Q361.101,116.751 362.851,118.251 364.601,119.751 365.851,119.201 367.151,118.651 367.251,116.351 367.301,114.101 366.151,111.401L365.901,110.801 366.551,111.101Q369.251,112.151 371.551,112.001 373.801,111.801 374.301,110.501 374.801,109.201 373.251,107.501 371.701,105.851 369.001,104.751L368.501,104.601 369.101,104.351Q371.751,103.201 373.251,101.451"/><path fill="#FFF" d="M362.101,103.551Q361.651,102.501 360.601,102.101 359.551,101.651 358.501,102.101 357.451,102.551 357.051,103.651 356.601,104.701 357.101,105.751 357.551,106.801 358.601,107.201 359.651,107.601 360.701,107.151 361.751,106.701 362.151,105.651 362.601,104.601 362.101,103.551"/><path fill="#44819B" d="M373.201,127.101Q373.201,125.351 371.201,124.101 369.201,122.851 366.401,122.851 363.601,122.851 361.601,124.101 359.601,125.351 359.601,127.101 359.601,128.851 361.601,130.101 363.601,131.351 366.401,131.351 369.201,131.351 371.201,130.101 373.201,128.851 373.201,127.101"/><path fill="#EF4061" d="M319.051,254.751L319.051,258.951 347.051,258.951 347.051,254.751 319.051,254.751"/><path fill="#EF4061" d="M347.051,316.001L347.051,311.751 319.051,311.751 319.051,316.001 347.051,316.001"/><path fill="#EF4061" d="M319.051,249.551L319.051,252.551 347.051,252.551 347.051,249.551Q347.051,247.251 345.401,245.551 343.751,243.901 341.401,243.901L324.751,243.901Q322.401,243.901 320.701,245.551 319.051,247.201 319.051,249.551"/><path fill="#EF4061" d="M347.051,320.301L347.051,318.151 319.051,318.151 319.051,320.301Q319.051,322.651 320.701,324.301 322.401,325.951 324.751,325.951L341.401,325.951Q343.751,325.951 345.401,324.301 347.051,322.651 347.051,320.301"/><path fill="#EF4061" d="M347.051,261.151L319.051,261.151 319.051,309.601 347.051,309.601 347.051,261.151"/><path fill="#FFF" d="M319.051,252.551L319.051,254.751 347.051,254.751 347.051,252.551 319.051,252.551"/><path fill="#FFF" d="M347.051,311.751L347.051,309.601 319.051,309.601 319.051,311.751 347.051,311.751"/><path fill="#FFF" d="M347.051,318.151L347.051,316.001 319.051,316.001 319.051,318.151 347.051,318.151"/><path fill="#EF4061" d="M279.751,273.901L263.101,273.901Q260.801,273.901 259.101,275.551 257.451,277.251 257.451,279.551L257.451,281.551 285.401,281.551 285.401,279.551Q285.401,277.201 283.751,275.551 282.101,273.901 279.751,273.901"/><path fill="#EF4061" d="M285.401,320.301L285.401,320.251 257.451,320.251 257.451,320.301Q257.451,322.651 259.101,324.301 260.801,325.951 263.101,325.951L279.751,325.951Q282.101,325.951 283.751,324.301 285.401,322.651 285.401,320.301"/><path fill="#EF4061" d="M285.401,317.601L285.401,284.251 257.451,284.251 257.451,317.601 285.401,317.601"/><path fill="#FFF" d="M285.401,284.251L285.401,281.551 257.451,281.551 257.451,284.251 285.401,284.251"/><path fill="#FFF" d="M285.401,320.251L285.401,317.601 257.451,317.601 257.451,320.251 285.401,320.251"/><path fill="#EF4061" d="M376.201,226.151Q374.551,224.501 372.201,224.501L355.551,224.501Q353.201,224.501 351.551,226.151 349.901,227.801 349.901,230.151L349.901,320.851Q349.901,323.201 351.551,324.901 353.201,326.551 355.551,326.551L372.201,326.551Q374.551,326.551 376.201,324.901 377.851,323.201 377.851,320.851L377.851,230.151Q377.851,227.851 376.201,226.151"/><path fill="#FFF" d="M374.651,239.951Q375.051,239.951 375.401,239.651 375.701,239.351 375.701,238.901 375.701,238.501 375.401,238.151 375.051,237.851 374.651,237.851L353.101,237.851Q352.651,237.851 352.351,238.151 352.051,238.501 352.051,238.901 352.051,239.351 352.351,239.651 352.651,239.951 353.101,239.951L374.651,239.951"/><path fill="#FFF" d="M374.651,247.951Q375.051,247.951 375.401,247.651 375.701,247.351 375.701,246.901 375.701,246.501 375.401,246.151 375.051,245.851 374.651,245.851L353.101,245.851Q352.651,245.851 352.351,246.151 352.051,246.501 352.051,246.901 352.051,247.351 352.351,247.651 352.651,247.951 353.101,247.951L374.651,247.951"/><path fill="#FFF" d="M352.351,255.651Q352.651,255.951 353.101,255.951L374.651,255.951Q375.051,255.951 375.401,255.651 375.701,255.351 375.701,254.901 375.701,254.501 375.401,254.151 375.051,253.851 374.651,253.851L353.101,253.851Q352.651,253.851 352.351,254.151 352.051,254.501 352.051,254.901 352.051,255.351 352.351,255.651"/><path fill="#FFF" d="M352.351,315.451Q352.651,315.751 353.101,315.751L374.651,315.751Q375.051,315.751 375.401,315.451 375.701,315.151 375.701,314.701 375.701,314.301 375.401,313.951 375.051,313.651 374.651,313.651L353.101,313.651Q352.651,313.651 352.351,313.951 352.051,314.301 352.051,314.701 352.051,315.151 352.351,315.451"/><path fill="#EF4061" d="M316.251,320.301L316.251,319.851 288.251,319.851 288.251,320.301Q288.251,322.651 289.901,324.301 291.601,325.951 293.901,325.951L310.551,325.951Q312.901,325.951 314.601,324.301 316.251,322.651 316.251,320.301"/><path fill="#FFF" d="M316.251,319.851L316.251,317.251 288.251,317.251 288.251,319.851 316.251,319.851"/><path fill="#EF4061" d="M316.251,280.351L316.251,274.901 288.251,274.901 288.251,280.351 316.251,280.351"/><path fill="#EF4061" d="M316.251,266.851L316.251,262.551Q316.251,260.201 314.601,258.551 312.901,256.901 310.551,256.901L293.901,256.901Q291.601,256.901 289.901,258.551 288.251,260.251 288.251,262.551L288.251,266.851 316.251,266.851"/><path fill="#EF4061" d="M316.251,317.251L316.251,283.101 288.251,283.101 288.251,317.251 316.251,317.251"/><path fill="#FFF" d="M316.251,283.101L316.251,280.351 288.251,280.351 288.251,283.101 316.251,283.101"/><path fill="#FFF" d="M316.251,274.901L316.251,266.851 288.251,266.851 288.251,274.901 316.251,274.901"/><path fill="#EF4061" d="M409.101,317.251L409.101,210.201 381.101,210.201 381.101,317.251 409.101,317.251"/><path fill="#EF4061" d="M381.101,319.851L381.101,320.301Q381.101,322.651 382.751,324.301 384.451,325.951 386.801,325.951L403.451,325.951Q405.801,325.951 407.451,324.301 409.101,322.651 409.101,320.301L409.101,319.851 381.101,319.851"/><path fill="#EF4061" d="M409.101,207.601L409.101,206.551Q409.101,204.251 407.451,202.551 405.801,200.901 403.451,200.901L386.801,200.901Q384.451,200.901 382.751,202.551 381.101,204.201 381.101,206.551L381.101,207.601 409.101,207.601"/><path fill="#FFF" d="M409.351,210.201L409.351,207.601 380.701,207.601 380.701,210.201 409.351,210.201"/><path fill="#FFF" d="M381.101,317.251L381.101,319.851 409.101,319.851 409.101,317.251 381.101,317.251"/><path fill="#FFF" d="M387.351,219.601L402.901,219.601Q403.301,219.601 403.601,219.301 403.901,218.951 403.901,218.551 403.901,218.101 403.601,217.801 403.301,217.501 402.901,217.501L387.351,217.501Q386.901,217.501 386.601,217.801 386.301,218.101 386.301,218.551 386.301,218.951 386.601,219.301 386.901,219.601 387.351,219.601"/><path fill="#FFF" d="M387.351,227.601L402.901,227.601Q403.301,227.601 403.601,227.301 403.901,226.951 403.901,226.551 403.901,226.101 403.601,225.801 403.301,225.501 402.901,225.501L387.351,225.501Q386.901,225.501 386.601,225.801 386.301,226.101 386.301,226.551 386.301,226.951 386.601,227.301 386.901,227.601 387.351,227.601"/><animate attributeName="display" repeatCount="indefinite" dur="25.958s" keyTimes="0;1" values="inline;inline"/></g><g id="libro8" transform="matrix(1 0 0 1 203.7 -143.149)" filter="url(#filter4)"><animateTransform attributeName="transform" additive="replace" type="translate" repeatCount="indefinite" dur="25.958s" keyTimes="0;0.019;0.02;0.026;0.027;0.268;0.269;0.274;0.275;0.282;0.283;0.655;0.656;0.666;0.667;0.674;0.675;1" values="218.05,-80.649;218.05,-80.649;218.05,127.6;218.05,127.6;218.05,123.35;218.05,123.35;234.119,126.544;234.119,126.544;244.423,123.35;244.423,123.35;249.25,123.35;249.25,123.35;259.733,123.374;259.733,123.374;274.791,123.342;274.791,123.342;280,123.35;280,123.35" calcMode="discrete"/><animateTransform attributeName="transform" additive="sum" type="rotate" repeatCount="indefinite" dur="25.958s" keyTimes="0;0.268;0.269;0.282;0.283;0.655;0.656;0.666;0.667;0.674;0.675;1" values="0,0,0;0,0,0;9.814,0,0;9.814,0,0;0,0,0;0,0,0;10.065,0,0;10.065,0,0;5.504,0,0;5.504,0,0;0,0,0;0,0,0" calcMode="discrete"/><animateTransform attributeName="transform" additive="sum" type="scale" repeatCount="indefinite" dur="25.958s" keyTimes="0;0.019;0.02;0.026;0.027;0.268;0.269;0.274;0.275;0.282;0.283;0.655;0.656;0.674;0.675;1" values="1,1;1,1;1.059,0.934;1.059,0.934;1,1;1,1;0.999,0.924;0.999,0.924;0.999,0.999;0.999,0.999;1,1;1,1;0.999,0.999;0.999,0.999;1,1;1,1" calcMode="discrete"/><animateTransform attributeName="transform" additive="sum" type="translate" repeatCount="indefinite" dur="25.958s" keyTimes="0;0.268;0.269;0.274;0.275;0.282;0.283;0.655;0.656;0.666;0.667;0.674;0.675;1" values="-14.35,-62.5;-14.35,-62.5;-14.45,-62.55;-14.45,-62.55;-14.3,-62.55;-14.3,-62.55;-14.35,-62.5;-14.35,-62.5;-14.35,-62.6;-14.35,-62.6;-14.3,-62.45;-14.3,-62.45;-14.35,-62.5;-14.35,-62.5" calcMode="discrete"/><path fill="#EF4061" d="M28.451,37.201L0.451,37.201 0.451,119.451Q0.451,121.801 2.101,123.451 3.801,125.101 6.151,125.101L22.801,125.101Q25.151,125.101 26.801,123.451 28.451,121.801 28.451,119.451L28.451,37.201"/><path fill="#EF4061" d="M0.451,28.101L0.451,34.451 28.451,34.451 28.451,28.101 0.451,28.101"/><path fill="#EF4061" d="M28.451,18.001L28.451,5.701Q28.451,3.401 26.801,1.701 25.151,0.051 22.801,0.051L6.151,0.051Q3.801,0.051 2.101,1.701 0.451,3.351 0.451,5.701L0.451,18.001 28.451,18.001"/><path fill="#FFF" d="M28.451,18.001L0.451,18.001 0.451,28.101 28.451,28.101 28.451,18.001"/><path fill="#FFF" d="M0.451,34.451L0.451,37.201 28.451,37.201 28.451,34.451 0.451,34.451"/><path fill="#FFF" d="M28.751,116.451L0.051,116.451 0.051,119.201 28.751,119.201 28.751,116.451"/></g><g id="libro7" transform="matrix(1 0 0 1 142.1 -69.899)" filter="url(#filter3)"><animateTransform attributeName="transform" additive="replace" type="translate" repeatCount="indefinite" dur="25.958s" keyTimes="0;0.006;0.007;1" values="156.1,-28.899;156.1,-28.899;156.1,175.1;156.1,175.1" calcMode="discrete"/><animateTransform attributeName="transform" additive="sum" type="scale" repeatCount="indefinite" dur="25.958s" keyTimes="0;0.006;0.007;0.013;0.013999999999999999;1" values="1,1;1,1;1.061,0.939;1.061,0.939;1,1;1,1" calcMode="discrete"/><animateTransform attributeName="transform" additive="sum" type="translate" repeatCount="indefinite" dur="25.958s" keyTimes="0;1" values="-14,-41;-14,-41" calcMode="discrete"/><path fill="#EF4061" d="M0.051,10.401L0.051,35.751 28.051,35.751 28.051,10.401 0.051,10.401"/><path fill="#EF4061" d="M0.051,5.701L0.051,7.701 28.051,7.701 28.051,5.701Q28.051,3.351 26.401,1.701 24.701,0.051 22.351,0.051L5.701,0.051Q3.401,0.051 1.701,1.701 0.051,3.401 0.051,5.701"/><path fill="#EF4061" d="M28.051,46.451L28.051,46.401 0.051,46.401 0.051,46.451Q0.051,48.801 1.701,50.451 3.401,52.101 5.701,52.101L22.351,52.101Q24.701,52.101 26.401,50.451 28.051,48.801 28.051,46.451"/><path fill="#EF4061" d="M0.051,38.401L0.051,43.751 28.051,43.751 28.051,38.401 0.051,38.401"/><path fill="#FFF" d="M0.051,7.701L0.051,10.401 28.051,10.401 28.051,7.701 0.051,7.701"/><path fill="#FFF" d="M0.051,35.751L0.051,38.401 28.051,38.401 28.051,35.751 0.051,35.751"/><path fill="#FFF" d="M28.051,43.751L0.051,43.751 0.051,46.401 28.051,46.401 28.051,43.751"/></g><g id="libro6" transform="matrix(1 0 0 1 172.9 -100.149)" filter="url(#filter2)"><animateTransform attributeName="transform" additive="replace" type="translate" repeatCount="indefinite" dur="25.958s" keyTimes="0;0.013;0.013999999999999999;0.019;0.02;0.38;0.381;0.387;0.388;0.396;0.397;0.403;0.404;1" values="186.9,-74.149;186.9,-74.149;186.9,133.25;186.9,133.25;186.9,129.85;186.9,129.85;201.304,129.154;201.304,129.154;213.523,126.688;213.523,126.688;216.983,126.675;216.983,126.675;217.85,129.85;217.85,129.85" calcMode="discrete"/><animateTransform attributeName="transform" additive="sum" type="rotate" repeatCount="indefinite" dur="25.958s" keyTimes="0;0.38;0.381;0.396;0.397;0.403;0.404;1" values="0,0,0;0,0,0;15.058,0,0;15.058,0,0;7.555,0,0;7.555,0,0;0,0,0;0,0,0" calcMode="discrete"/><animateTransform attributeName="transform" additive="sum" type="scale" repeatCount="indefinite" dur="25.958s" keyTimes="0;0.013;0.013999999999999999;0.019;0.02;0.38;0.381;0.387;0.388;0.396;0.397;0.403;0.404;1" values="1,1;1,1;1.118,0.937;1.118,0.937;1,1;1,1;0.998,0.998;0.998,0.998;0.998,1.042;0.998,1.042;0.999,1.043;0.999,1.043;1,1;1,1" calcMode="discrete"/><animateTransform attributeName="transform" additive="sum" type="translate" repeatCount="indefinite" dur="25.958s" keyTimes="0;0.38;0.381;0.387;0.388;0.396;0.397;0.403;0.404;1" values="-14,-26;-14,-26;-14.05,-26.05;-14.05,-26.05;-13.95,-26;-13.95,-26;-14.05,-25.9;-14.05,-25.9;-14,-26;-14,-26" calcMode="discrete"/><path fill="#EF4061" d="M28.051,5.701Q28.051,3.351 26.401,1.701 24.701,0.051 22.351,0.051L5.701,0.051Q3.401,0.051 1.701,1.701 0.051,3.401 0.051,5.701L0.051,76.451Q0.051,78.801 1.701,80.451 3.401,82.101 5.701,82.101L22.351,82.101Q24.701,82.101 26.401,80.451 28.051,78.801 28.051,76.451L28.051,5.701"/><path fill="#FFF" d="M2.001,13.801Q2.301,14.101 2.751,14.101L24.301,14.101Q24.701,14.101 25.001,13.801 25.301,13.501 25.301,13.051 25.301,12.651 25.001,12.301 24.701,12.001 24.301,12.001L2.751,12.001Q2.301,12.001 2.001,12.301 1.701,12.651 1.701,13.051 1.701,13.501 2.001,13.801"/><path fill="#FFF" d="M2.001,21.801Q2.301,22.101 2.751,22.101L24.301,22.101Q24.701,22.101 25.001,21.801 25.301,21.501 25.301,21.051 25.301,20.651 25.001,20.301 24.701,20.001 24.301,20.001L2.751,20.001Q2.301,20.001 2.001,20.301 1.701,20.651 1.701,21.051 1.701,21.501 2.001,21.801"/><path fill="#FFF" d="M24.301,30.101Q24.701,30.101 25.001,29.801 25.301,29.501 25.301,29.051 25.301,28.651 25.001,28.301 24.701,28.001 24.301,28.001L2.751,28.001Q2.301,28.001 2.001,28.301 1.701,28.651 1.701,29.051 1.701,29.501 2.001,29.801 2.301,30.101 2.751,30.101L24.301,30.101"/><path fill="#FFF" d="M2.001,71.601Q2.301,71.901 2.751,71.901L24.301,71.901Q24.701,71.901 25.001,71.601 25.301,71.301 25.301,70.851 25.301,70.451 25.001,70.101 24.701,69.801 24.301,69.801L2.751,69.801Q2.301,69.801 2.001,70.101 1.701,70.451 1.701,70.851 1.701,71.301 2.001,71.601"/></g><g id="libro5" transform="matrix(1 0 0 1 235.25 -87.149)" filter="url(#filter1)"><animateTransform attributeName="transform" additive="replace" type="translate" dur="25.958s" keyTimes="0;1" values="0,0;0,0" fill="freeze"/><animateTransform attributeName="transform" additive="sum" type="translate" repeatCount="indefinite" dur="25.958s" keyTimes="0;0.026;0.027;0.032;0.033;0.268;0.269;0.274;0.275;0.281;0.28200000000000003;0.287;0.288;0.294;0.295;0.3;0.301;0.374;0.375;0.38;0.381;0.387;0.388;0.393;0.394;0.4;0.401;0.406;0.407;0.408;1" values="249.2,-52.649;249.2,-52.649;249.194,154.75;249.194,154.75;249.2,151.35;249.2,151.35;249.194,156.15;249.194,156.15;249.2,140.15;249.2,140.15;233.212,128.97;233.212,128.97;218,140.15;218,140.15;218.044,154.3;218.044,154.3;218.05,151.35;218.05,151.35;217.894,156.15;217.894,156.15;217.9,140.15;217.9,140.15;201.873,128.97;201.873,128.97;186.7,140.15;186.7,140.15;186.744,153.75;186.744,153.75;186.9,151.35;0;0" calcMode="discrete"/><animateTransform attributeName="transform" additive="sum" type="translate" repeatCount="indefinite" dur="25.958s" keyTimes="0;0.408;1" values="0;186.9,151.35;186.9,151.35" calcMode="discrete"/><animateTransform attributeName="transform" additive="sum" type="scale" repeatCount="indefinite" dur="25.958s" keyTimes="0;0.026;0.027;0.032;0.033;0.268;0.269;0.274;0.275;0.281;0.28200000000000003;0.287;0.288;0.294;0.295;0.3;0.301;0.374;0.375;0.38;0.381;0.387;0.388;0.393;0.394;0.4;0.401;0.406;0.407;0.408;1" values="1,1;1,1;1.118,0.904;1.118,0.904;1,1;1,1;1.114,0.838;1.114,0.838;0.885,1.091;0.885,1.091;0.771,1.185;0.771,1.185;0.885,1.091;0.885,1.091;1.114,0.907;1.114,0.907;1,1;1,1;1.114,0.838;1.114,0.838;0.885,1.091;0.885,1.091;0.771,1.185;0.771,1.185;0.885,1.091;0.885,1.091;1.114,0.907;1.114,0.907;1,1;1;1" calcMode="discrete"/><animateTransform attributeName="transform" additive="sum" type="translate" repeatCount="indefinite" dur="25.958s" keyTimes="0;0.387;0.388;0.393;0.394;0.407;0.408;1" values="-13.95,-34.5;-13.95,-34.5;-13.9,-34.5;-13.9,-34.5;-13.95,-34.5;-13.95,-34.5;0;0" calcMode="discrete"/><animateTransform attributeName="transform" additive="sum" type="translate" repeatCount="indefinite" dur="25.958s" keyTimes="0;0.408;1" values="0;-13.95,-34.5;-13.95,-34.5" calcMode="discrete"/><path fill="#EF4061" d="M28.001,60.401L28.001,9.351 0.051,9.351 0.051,60.401 28.001,60.401"/><path fill="#EF4061" d="M28.001,63.451L28.001,63.001 0.051,63.001 0.051,63.451Q0.051,65.801 1.701,67.451 3.351,69.101 5.701,69.101L22.351,69.101Q24.701,69.101 26.351,67.451 28.001,65.801 28.001,63.451"/><path fill="#EF4061" d="M28.001,6.751L28.001,5.701Q28.001,3.351 26.351,1.701 24.701,0.051 22.351,0.051L5.701,0.051Q3.351,0.051 1.701,1.701 0.051,3.351 0.051,5.701L0.051,6.751 28.001,6.751"/><path fill="#FFF" d="M28.001,9.351L28.001,6.751 0.051,6.751 0.051,9.351 28.001,9.351"/><path fill="#FFF" d="M28.001,60.401L0.051,60.401 0.051,63.001 28.001,63.001 28.001,60.401"/><path fill="#FFF" d="M21.801,18.751Q22.201,18.751 22.551,18.451 22.851,18.101 22.851,17.701 22.851,17.251 22.551,16.951 22.201,16.651 21.801,16.651L6.251,16.651Q5.851,16.651 5.501,16.951 5.201,17.251 5.201,17.701 5.201,18.101 5.501,18.451 5.851,18.751 6.251,18.751L21.801,18.751"/><path fill="#FFF" d="M21.801,26.751Q22.201,26.751 22.551,26.451 22.851,26.101 22.851,25.701 22.851,25.251 22.551,24.951 22.201,24.651 21.801,24.651L6.251,24.651Q5.851,24.651 5.501,24.951 5.201,25.251 5.201,25.701 5.201,26.101 5.501,26.451 5.851,26.751 6.251,26.751L21.801,26.751"/></g><g id="libro4" transform="matrix(1 0 0 1 266.05 -120.149)" filter="url(#filter)"><animateTransform attributeName="transform" additive="replace" type="translate" repeatCount="indefinite" dur="25.958s" keyTimes="0;0.032;0.033;0.038;0.039;0.653;0.654;0.661;0.662;0.666;0.667;0.671;0.672;0.677;0.678;0.684;0.685;1" values="280,-69.149;280,-69.149;280.05,139.1;280.05,139.1;280,134.85;280,134.85;279.996,140.895;279.996,140.895;280,127.85;280,127.85;269.5,124.349;269.5,124.349;255.5,127.85;255.5,127.85;248.895,141.427;248.895,141.427;249.25,134.85;249.25,134.85" calcMode="discrete"/><animateTransform attributeName="transform" additive="sum" type="scale" repeatCount="indefinite" dur="25.958s" keyTimes="0;0.032;0.033;0.038;0.039;0.653;0.654;0.661;0.662;0.666;0.667;0.671;0.672;0.677;0.678;0.684;0.685;1" values="1,1;1,1;1.118,0.919;1.118,0.919;1,1;1,1;1.079,0.878;1.079,0.878;1,1;1,1;0.921,1.036;0.921,1.036;1,1;1,1;1.107,0.87;1.107,0.87;1,1;1,1" calcMode="discrete"/><animateTransform attributeName="transform" additive="sum" type="translate" repeatCount="indefinite" dur="25.958s" keyTimes="0;0.032;0.033;0.038;0.039;1" values="-13.95,-51;-13.95,-51;-14,-51;-14,-51;-13.95,-51;-13.95,-51" calcMode="discrete"/><path fill="#EF4061" d="M28.001,20.301L0.051,20.301 0.051,86.751 28.001,86.751 28.001,20.301"/><path fill="#EF4061" d="M28.001,11.701L28.001,5.701Q28.001,3.351 26.351,1.701 24.701,0.051 22.351,0.051L5.701,0.051Q3.401,0.051 1.701,1.701 0.051,3.401 0.051,5.701L0.051,11.701 28.001,11.701"/><path fill="#EF4061" d="M0.051,88.901L0.051,93.151 28.001,93.151 28.001,88.901 0.051,88.901"/><path fill="#EF4061" d="M0.051,95.301L0.051,96.451Q0.051,98.801 1.701,100.451 3.401,102.101 5.701,102.101L22.351,102.101Q24.701,102.101 26.351,100.451 28.001,98.801 28.001,96.451L28.001,95.301 0.051,95.301"/><path fill="#EF4061" d="M28.001,18.101L28.001,13.901 0.051,13.901 0.051,18.101 28.001,18.101"/><path fill="#FFF" d="M28.001,13.901L28.001,11.701 0.051,11.701 0.051,13.901 28.001,13.901"/><path fill="#FFF" d="M28.001,18.101L0.051,18.101 0.051,20.301 28.001,20.301 28.001,18.101"/><path fill="#FFF" d="M0.051,86.751L0.051,88.901 28.001,88.901 28.001,86.751 0.051,86.751"/><path fill="#FFF" d="M28.001,93.151L0.051,93.151 0.051,95.301 28.001,95.301 28.001,93.151"/></g><g style="display:none;"><path fill="none" stroke="#EF4061" stroke-width="4" stroke-linecap="round" stroke-linejoin="round" d="M268.55,63.25L271.65,72.55"/><path fill="none" stroke="#EF4061" stroke-width="4" stroke-linecap="round" stroke-linejoin="round" d="M279.85,60.75L279.95,70.05"/><path fill="none" stroke="#EF4061" stroke-width="4" stroke-linecap="round" stroke-linejoin="round" d="M291.6,63.25L288.5,72.55"/><animate attributeName="display" repeatCount="indefinite" dur="25.958s" keyTimes="0;0.636;0.647;1" values="none;inline;none;none"/></g><g style="display:none;"><path fill="none" stroke="#EF4061" stroke-width="4" stroke-linecap="round" stroke-linejoin="round" d="M279.85,60.75L279.95,70.05"/><path fill="none" stroke="#EF4061" stroke-width="4" stroke-linecap="round" stroke-linejoin="round" d="M268.55,63.25L271.65,72.55"/><path fill="none" stroke="#EF4061" stroke-width="4" stroke-linecap="round" stroke-linejoin="round" d="M291.6,63.25L288.5,72.55"/><animate attributeName="display" repeatCount="indefinite" dur="25.958s" keyTimes="0;0.613;0.624;1" values="none;inline;none;none"/></g><g style="display:none;"><path fill="none" stroke="#EF4061" stroke-width="4" stroke-linecap="round" stroke-linejoin="round" d="M230.6,101.25L227.5,110.55"/><path fill="none" stroke="#EF4061" stroke-width="4" stroke-linecap="round" stroke-linejoin="round" d="M207.55,101.25L210.65,110.55"/><path fill="none" stroke="#EF4061" stroke-width="4" stroke-linecap="round" stroke-linejoin="round" d="M218.85,98.75L218.95,108.05"/><animate attributeName="display" repeatCount="indefinite" dur="25.958s" keyTimes="0;0.34;0.352;1" values="none;inline;none;none"/></g><g style="display:none;"><path fill="none" stroke="#EF4061" stroke-width="4" stroke-linecap="round" stroke-linejoin="round" d="M207.55,101.25L210.65,110.55"/><path fill="none" stroke="#EF4061" stroke-width="4" stroke-linecap="round" stroke-linejoin="round" d="M230.6,101.25L227.5,110.55"/><path fill="none" stroke="#EF4061" stroke-width="4" stroke-linecap="round" stroke-linejoin="round" d="M218.85,98.75L218.95,108.05"/><animate attributeName="display" repeatCount="indefinite" dur="25.958s" keyTimes="0;0.318;0.329;1" values="none;inline;none;none"/></g><g style="display:none;"><path fill="none" stroke="#EF4061" stroke-width="4" stroke-linecap="round" stroke-linejoin="round" d="M237.55,101.25L240.65,110.55"/><path fill="none" stroke="#EF4061" stroke-width="4" stroke-linecap="round" stroke-linejoin="round" d="M260.6,101.25L257.5,110.55"/><path fill="none" stroke="#EF4061" stroke-width="4" stroke-linecap="round" stroke-linejoin="round" d="M248.85,98.75L248.95,108.05"/><animate attributeName="display" repeatCount="indefinite" dur="25.958s" keyTimes="0;0.223;0.234;0.246;0.257;1" values="none;inline;none;inline;none;none"/></g></g></svg>